<svg xmlns="http://www.w3.org/2000/svg" width="203" height="51" fill="none" viewBox="0 0 203 51">
    <path fill="#253254" d="M25.977 3.864c-2.753-1.535-5.868-2.342-9.04-2.342-3.17 0-6.285.807-9.038 2.342-2.629 1.609-4.686 3.968-5.89 6.758-2.678 6.385-2.678 13.541 0 19.926 1.203 2.78 3.25 5.134 5.867 6.745 2.763 1.535 5.888 2.342 9.067 2.342 3.18 0 6.304-.807 9.067-2.342 2.612-1.614 4.656-3.967 5.859-6.745 2.678-6.385 2.678-13.54 0-19.926-1.205-2.79-3.262-5.15-5.892-6.758zm-1.84 26.51c-.681 1.29-1.713 2.371-2.983 3.126-1.27.755-2.729 1.155-4.216 1.155s-2.946-.4-4.216-1.155-2.302-1.836-2.983-3.126c-1.553-3.048-2.36-6.405-2.358-9.809.002-3.403.813-6.76 2.37-9.806.683-1.283 1.715-2.359 2.982-3.11 1.268-.75 2.722-1.147 4.205-1.147s2.937.397 4.204 1.148c1.268.75 2.3 1.826 2.983 3.11 1.558 3.045 2.37 6.402 2.371 9.805.002 3.404-.805 6.761-2.359 9.809zm27.739-19.189c-1.69-.036-3.346.465-4.718 1.429-1.464 1.117-2.594 2.597-3.272 4.286v-5.102h-6.68v36.618h6.686V36.01c.701.79 1.501 1.49 2.381 2.086.664.417 1.388.735 2.147.945.794.21 1.614.312 2.436.305 1.56.036 3.1-.34 4.459-1.086 1.359-.747 2.486-1.838 3.263-3.157 1.939-3.194 2.896-6.863 2.759-10.572.161-3.387-.698-6.746-2.47-9.663-.728-1.162-1.759-2.115-2.987-2.76-1.229-.647-2.611-.963-4.006-.917l.002-.006zm1.047 20.573c-.268.826-.795 1.548-1.507 2.064-.712.517-1.572.801-2.46.814-.861-.006-1.709-.216-2.469-.613-1.021-.593-1.907-1.385-2.6-2.326V21.042c.71-1.148 1.615-2.17 2.676-3.024.8-.682 1.815-1.075 2.877-1.114.744-.003 1.474.204 2.101.595.627.39 1.126.95 1.436 1.61.923 1.884 1.351 3.963 1.246 6.049.044 2.265-.4 4.514-1.302 6.602l.002-.002zm29.36-17.287c-.919-1.076-2.078-1.931-3.389-2.501-1.31-.57-2.738-.838-4.172-.785-2.313-.074-4.588.577-6.494 1.857-1.797 1.285-3.188 3.036-4.014 5.054-.952 2.314-1.42 4.79-1.378 7.283.042 2.493.594 4.953 1.624 7.235.933 2.15 2.564 3.942 4.642 5.1 2.161 1.124 4.582 1.686 7.03 1.632 3.055-.038 6.084-.55 8.973-1.52v-5.102c-2.369 1.037-4.922 1.613-7.517 1.693-1.44.068-2.87-.25-4.137-.921-1.024-.608-1.869-1.466-2.45-2.49-.684-1.334-1.069-2.795-1.13-4.285h15.232c.003-5.972-.938-10.054-2.822-12.244l.001-.006zM69.76 22.615c.066-1.816.603-3.586 1.56-5.144.333-.532.8-.972 1.357-1.278.557-.306 1.185-.468 1.824-.47.585 0 1.16.145 1.669.425.509.279.936.68 1.24 1.168.885 1.625 1.275 3.463 1.125 5.297l-8.775.002zm34.256-11.43c-1.575.02-3.114.464-4.446 1.286-1.695 1.11-3.07 2.626-3.994 4.402v-5.078h-6.68v26.93h6.68V21.786c.788-1.499 1.885-2.822 3.222-3.888.83-.607 1.829-.954 2.866-.992.508-.006 1.007.135 1.434.404.448.293.801.707 1.015 1.19.314.966.44 1.98.373 2.992v17.241h6.68V19.702c.104-1.16-.029-2.329-.391-3.438-.362-1.11-.947-2.138-1.719-3.026-.653-.658-1.437-1.179-2.304-1.53-.867-.353-1.798-.528-2.737-.517l.001-.006zm33.038.613h-5.42l-5.108 8.54-5.34-8.54h-7.606l8.162 13.396-8.522 13.534h5.529l5.696-8.876 13.328 20.16h8.578L129.264 25.05l7.791-13.253zm10.473 21.682c-1.185-.83-2.072-2-2.537-3.349-.614-1.578-.922-3.253-.908-4.94-.023-2.191.518-4.353 1.573-6.287.454-.898 1.168-1.647 2.052-2.154.885-.508 1.903-.752 2.928-.703 2.208.13 4.379.619 6.422 1.446v-5.248c-2.24-.65-4.559-1.004-6.895-1.054-4.331 0-7.611 1.304-9.842 3.911-2.327 2.88-3.515 6.48-3.348 10.144-.119 3.591.997 7.117 3.169 10.018 1.12 1.378 2.566 2.47 4.215 3.181 1.648.712 3.449 1.021 5.248.903 2.598-.036 5.177-.44 7.655-1.202v-5.028c-1.89.908-3.963 1.395-6.069 1.43-1.303.012-2.579-.358-3.663-1.064v-.004zm29.95-19.002c-.918-1.075-2.077-1.93-3.388-2.5-1.31-.57-2.737-.839-4.171-.786-2.313-.074-4.588.577-6.494 1.857-1.797 1.285-3.188 3.036-4.016 5.054-.951 2.314-1.419 4.79-1.376 7.283.042 2.493.594 4.953 1.624 7.235.934 2.15 2.565 3.942 4.644 5.1 2.161 1.124 4.582 1.686 7.03 1.632 3.055-.037 6.084-.55 8.974-1.52v-5.109c-2.369 1.037-4.922 1.612-7.517 1.693-1.44.068-2.871-.25-4.139-.921-1.024-.609-1.868-1.466-2.45-2.49-.683-1.334-1.068-2.795-1.129-4.285h15.232c.002-5.972-.94-10.054-2.824-12.244v.001zm-12.52 8.144c.066-1.816.603-3.585 1.56-5.143.333-.534.8-.976 1.357-1.284.558-.307 1.187-.47 1.827-.472.584 0 1.159.146 1.668.425.509.279.936.68 1.24 1.168.885 1.625 1.276 3.463 1.126 5.297l-8.778.009zm19.204 16.114h6.68V.006h-6.68v38.73zM195.541.006v38.726h6.676V.007h-6.676z"/>
</svg>
